<svg xmlns="http://www.w3.org/2000/svg" xmlns:xlink="http://www.w3.org/1999/xlink" width="500" zoomAndPan="magnify" viewBox="0 0 375 374.999991" height="500" preserveAspectRatio="xMidYMid meet" version="1.0"><defs><clipPath id="id1"><path d="M 37.5 37.5 L 337.5 37.5 L 337.5 337.5 L 37.5 337.5 Z M 37.5 37.5 " clip-rule="nonzero"/></clipPath><clipPath id="id2"><path d="M 100 53.261719 L 275 53.261719 L 275 321.761719 L 100 321.761719 Z M 100 53.261719 " clip-rule="nonzero"/></clipPath><clipPath id="id3"><path d="M 123.433594 52.511719 L 248.683594 52.511719 L 248.683594 94.511719 L 123.433594 94.511719 Z M 123.433594 52.511719 " clip-rule="nonzero"/></clipPath><clipPath id="id4"><path d="M 124.183594 280.941406 L 249.433594 280.941406 L 249.433594 322.941406 L 124.183594 322.941406 Z M 124.183594 280.941406 " clip-rule="nonzero"/></clipPath></defs><g clip-path="url(#id1)"><path fill="#b25538" d="M 187.5 37.5 C 104.65625 37.5 37.5 104.65625 37.5 187.5 C 37.5 270.34375 104.65625 337.5 187.5 337.5 C 270.34375 337.5 337.5 270.34375 337.5 187.5 C 337.5 104.65625 270.34375 37.5 187.5 37.5 " fill-opacity="1" fill-rule="nonzero"/></g><g clip-path="url(#id2)"><path fill="#fff4f1" d="M 246.113281 308.050781 L 128.5625 308.050781 C 127.660156 308.050781 126.929688 308.785156 126.929688 309.6875 L 126.929688 320.0625 C 126.929688 320.964844 127.660156 321.699219 128.5625 321.699219 L 246.113281 321.699219 C 247.015625 321.699219 247.746094 320.964844 247.746094 320.0625 L 247.746094 309.6875 C 247.746094 308.785156 247.015625 308.050781 246.113281 308.050781 Z M 128.5625 66.976562 L 246.113281 66.976562 C 247.015625 66.976562 247.746094 66.242188 247.746094 65.335938 L 247.746094 54.964844 C 247.746094 54.0625 247.015625 53.328125 246.113281 53.328125 L 128.5625 53.328125 C 127.660156 53.328125 126.929688 54.0625 126.929688 54.964844 L 126.929688 65.335938 C 126.929688 66.242188 127.660156 66.976562 128.5625 66.976562 Z M 152.921875 206.476562 C 152.921875 207.804688 154.421875 208.582031 155.503906 207.816406 C 155.625 207.726562 155.75 207.636719 155.871094 207.550781 C 157.28125 206.511719 158.542969 205.277344 159.6875 203.953125 L 173.019531 188.507812 C 173.546875 187.890625 173.546875 186.976562 173.015625 186.359375 L 159.65625 171.023438 C 158.519531 169.714844 157.269531 168.5 155.871094 167.472656 C 155.746094 167.386719 155.625 167.296875 155.5 167.207031 C 154.417969 166.441406 152.921875 167.222656 152.921875 168.550781 Z M 113.34375 280.273438 C 112.417969 280.3125 111.640625 279.574219 111.640625 278.636719 L 111.640625 265.519531 C 111.640625 264.644531 112.320312 263.941406 113.191406 263.886719 C 126.066406 263.089844 136.328125 252.460938 136.574219 239.421875 C 136.578125 239.261719 136.578125 239.105469 136.578125 238.945312 L 136.578125 165.203125 C 136.578125 164.113281 135.535156 163.332031 134.488281 163.628906 C 129.667969 164.984375 125.1875 167.835938 121.765625 172.160156 C 118.839844 175.855469 117.03125 180.351562 116.585938 185.050781 C 116.0625 190.507812 117.289062 195.804688 119.996094 200.308594 C 120.148438 200.5625 120.234375 200.851562 120.234375 201.148438 L 120.234375 219.933594 C 120.234375 221.257812 118.742188 222.039062 117.660156 221.273438 C 115.113281 219.484375 112.746094 217.382812 110.605469 214.992188 C 104.359375 208.03125 100.667969 199.070312 100.183594 189.726562 C 99.566406 177.902344 103.882812 166.679688 112.167969 158.375 C 118.992188 151.53125 127.652344 147.605469 136.578125 146.59375 C 142.042969 145.96875 147.609375 146.441406 152.921875 148.007812 C 159.289062 149.894531 165.292969 153.34375 170.3125 158.375 L 170.691406 158.777344 L 183.507812 173.496094 C 184.160156 174.25 185.324219 174.246094 185.972656 173.492188 L 253.453125 95.296875 C 253.765625 94.9375 254.21875 94.730469 254.691406 94.730469 L 271.988281 94.730469 C 273.386719 94.730469 274.140625 96.378906 273.222656 97.441406 L 199.285156 183.097656 L 199.25 183.070312 L 172.289062 214.390625 L 171.417969 215.398438 L 170.523438 216.433594 L 170.3125 216.644531 C 165.386719 221.582031 159.425781 225.113281 152.921875 227.027344 L 152.921875 238.945312 C 152.921875 261.179688 135.320312 279.375 113.34375 280.273438 Z M 274.144531 277.578125 L 207.65625 201.238281 C 207 200.484375 205.835938 200.492188 205.1875 201.246094 L 196.5625 211.265625 C 196.03125 211.878906 196.035156 212.796875 196.570312 213.40625 L 254.320312 279.734375 C 254.632812 280.089844 255.085938 280.292969 255.554688 280.292969 L 272.914062 280.292969 C 274.320312 280.292969 275.066406 278.636719 274.144531 277.578125 Z M 111.640625 109.488281 L 111.640625 96.386719 C 111.640625 95.484375 112.371094 94.75 113.273438 94.75 L 151.289062 94.75 C 152.191406 94.75 152.921875 95.484375 152.921875 96.386719 L 152.921875 133.042969 C 152.921875 134.066406 151.996094 134.839844 150.992188 134.648438 C 147.8125 134.046875 144.546875 133.742188 141.238281 133.742188 C 140.253906 133.742188 139.277344 133.773438 138.304688 133.824219 C 137.367188 133.878906 136.578125 133.132812 136.578125 132.195312 L 136.578125 112.765625 C 136.578125 111.863281 135.847656 111.128906 134.945312 111.128906 L 113.273438 111.128906 C 112.371094 111.128906 111.640625 110.394531 111.640625 109.488281 " fill-opacity="1" fill-rule="nonzero"/></g><g clip-path="url(#id3)"><path fill="#b25538" d="M 123.570312 52.511719 L 248.519531 52.511719 L 248.519531 94.511719 L 123.570312 94.511719 Z M 123.570312 52.511719 " fill-opacity="1" fill-rule="nonzero"/></g><g clip-path="url(#id4)"><path fill="#b25538" d="M 124.320312 280.941406 L 249.269531 280.941406 L 249.269531 322.941406 L 124.320312 322.941406 Z M 124.320312 280.941406 " fill-opacity="1" fill-rule="nonzero"/></g></svg>